<?xml version="1.0" standalone="no"?>
<!DOCTYPE svg PUBLIC "-//W3C//DTD SVG 20010904//EN"
 "http://www.w3.org/TR/2001/REC-SVG-20010904/DTD/svg10.dtd">
<svg version="1.0" xmlns="http://www.w3.org/2000/svg"
 width="403.000000pt" height="145.000000pt" viewBox="0 0 403.000000 145.000000"
 preserveAspectRatio="xMidYMid meet">

<g transform="translate(0.000000,145.000000) scale(0.100000,-0.100000)"
fill="#000000" stroke="none">
<path d="M528 1415 c-62 -45 -81 -75 -72 -111 17 -71 75 -151 119 -162 45 -12
68 -53 73 -126 l4 -64 -158 -37 c-359 -85 -546 -156 -480 -181 8 -3 95 17 193
45 187 53 334 87 393 93 l35 3 -3 -49 c-2 -43 -11 -61 -76 -150 -106 -145
-202 -295 -232 -361 -28 -60 -27 -111 1 -135 17 -14 88 15 146 61 21 17 39 27
39 22 0 -4 -7 -43 -15 -86 -20 -103 -19 -130 4 -158 18 -21 21 -22 35 -9 9 9
21 57 30 115 8 55 27 136 41 180 30 92 126 295 179 375 l35 55 1 -82 c0 -72 2
-84 22 -97 12 -8 24 -13 28 -11 3 2 19 35 34 74 44 112 56 112 56 -1 0 -52 5
-99 11 -105 21 -21 59 -2 81 41 31 61 108 176 119 176 12 0 11 -80 -1 -200 -9
-85 -9 -96 7 -107 9 -7 23 -13 30 -13 16 0 52 74 53 107 0 13 22 61 48 107 27
47 68 127 92 180 l44 95 66 -6 c41 -4 68 -11 74 -20 8 -15 27 -32 60 -56 18
-14 16 -19 -48 -117 -64 -98 -74 -130 -42 -130 8 0 54 30 103 67 135 102 225
134 284 103 31 -17 23 -29 -38 -57 -142 -65 -249 -145 -274 -205 -12 -28 -11
-32 10 -49 53 -43 145 -12 270 90 69 56 89 79 97 111 3 14 8 33 11 43 2 9 18
24 34 33 34 17 30 37 -7 28 -18 -5 -33 1 -59 24 -62 55 -131 52 -253 -13 l-63
-33 27 46 c15 26 39 65 53 87 l27 40 694 6 c695 7 943 16 1205 45 213 23 311
49 345 89 20 24 -7 45 -82 63 -53 13 -196 16 -880 19 l-818 4 -28 29 c-36 35
-87 50 -179 50 -62 0 -191 -19 -244 -35 -14 -5 -20 3 -30 37 -15 59 -35 95
-59 108 -47 25 -80 -32 -80 -142 0 -57 -1 -58 -38 -77 -28 -15 -102 -26 -300
-47 l-263 -28 -147 48 c-81 27 -148 50 -150 51 -2 1 -16 53 -32 114 -33 123
-58 187 -84 214 -23 22 -23 22 -78 -18z m79 -91 c28 -61 44 -174 24 -174 -6 0
-34 22 -61 48 -45 44 -50 53 -50 92 0 42 28 90 52 90 5 0 21 -25 35 -56z
m1091 -86 c7 -7 12 -33 12 -59 0 -42 -2 -47 -26 -52 -34 -6 -39 10 -24 73 13
52 18 58 38 38z m461 -110 c13 -5 22 -11 19 -13 -2 -2 -76 -9 -163 -15 -88 -5
-179 -13 -202 -16 -25 -3 -43 -1 -43 5 0 14 75 40 145 50 65 10 206 4 244 -11z
m-449 -42 c0 -2 -7 -7 -16 -10 -8 -3 -12 -2 -9 4 6 10 25 14 25 6z m-881 -62
c50 -15 88 -31 84 -35 -9 -8 -137 -29 -177 -29 -25 0 -26 3 -26 51 0 38 3 50
13 46 7 -3 55 -17 106 -33z m2965 18 c74 -7 77 -8 60 -24 -52 -46 -490 -72
-1429 -83 l-480 -6 87 29 c48 16 109 43 135 58 35 21 66 31 118 35 89 8 1404
0 1509 -9z m-1679 -1 c-26 -25 -198 -81 -251 -81 -29 0 -32 3 -36 35 -4 35 -4
35 37 36 50 2 248 15 255 17 2 1 0 -2 -5 -7z m-445 -44 c0 -7 -13 -25 -28 -40
-30 -28 -59 -33 -137 -19 l-39 7 49 33 c39 26 58 32 102 32 37 0 53 -4 53 -13z
m-255 -27 c-15 -17 -30 -20 -89 -19 -39 1 -82 4 -96 8 -20 6 -13 9 35 15 33 4
67 9 75 10 8 2 33 4 54 5 38 1 39 1 21 -19z m-185 -46 c69 -9 126 -17 128 -19
3 -3 -45 -123 -89 -220 l-22 -50 -13 64 c-14 66 -36 101 -63 101 -9 0 -45 -39
-81 -88 l-64 -87 -8 55 c-9 60 -31 100 -54 100 -9 0 -29 -13 -46 -30 -16 -16
-31 -30 -34 -30 -2 0 -4 17 -4 38 0 73 -15 73 -79 4 -32 -35 -75 -91 -95 -125
-20 -34 -36 -57 -36 -51 0 24 34 123 62 177 32 65 27 87 -19 87 -39 0 -25 33
21 48 51 16 224 40 306 41 35 1 121 -6 190 -15z m450 -44 c0 -5 -7 -10 -16
-10 -8 0 -12 5 -9 10 3 6 10 10 16 10 5 0 9 -4 9 -10z m238 -276 c-57 -80
-130 -132 -205 -149 -48 -10 -43 16 11 69 42 41 186 125 214 126 8 0 0 -19
-20 -46z m-1321 -59 c-11 -112 -87 -225 -188 -280 l-52 -28 7 29 c4 16 22 53
39 82 32 54 185 252 195 252 2 0 2 -25 -1 -55z"/>
</g>
</svg>
